<?xml version="1.0" encoding="utf-8"?>
<!-- Generator: Adobe Illustrator 26.0.2, SVG Export Plug-In . SVG Version: 6.00 Build 0)  -->
<svg version="1.1" id="_レイヤー_1" xmlns="http://www.w3.org/2000/svg" xmlns:xlink="http://www.w3.org/1999/xlink" x="0px"
	 y="0px" viewBox="0 0 45 45" style="enable-background:new 0 0 45 45;" xml:space="preserve">
<style type="text/css">
	.st0{fill:#01CBA4;}
	.st1{fill:none;stroke:#000000;stroke-width:2;stroke-miterlimit:10;}
</style>
<circle id="_楕円形_10" class="st0" cx="22.5" cy="22.5" r="22.5"/>
<g id="_グループ_1733">
	<path id="_パス_766" d="M24.4,11.8L18.7,17H14c-1.1,0-2,0.9-2,2v7c0,1.1,0.9,2,2,2h4.7l5.7,5.3c1,0.8,2,0.5,2-0.7V12.5
		C26.4,11.2,25.4,11,24.4,11.8z"/>
	<path id="_パス_767" d="M31.5,28.7c-0.4,0-0.8-0.4-0.8-0.8c0-0.2,0.1-0.4,0.3-0.6c2.7-2.3,3-6.4,0.6-9c-0.2-0.2-0.4-0.4-0.6-0.6
		c-0.3-0.3-0.3-0.8,0-1.1c0.3-0.3,0.8-0.3,1.1-0.1c3.3,2.9,3.7,7.9,0.8,11.2c-0.2,0.3-0.5,0.5-0.8,0.8
		C31.9,28.6,31.7,28.7,31.5,28.7z"/>
	<path id="_パス_768" d="M29.3,26.5c-0.4,0-0.8-0.4-0.8-0.8c0-0.2,0.1-0.5,0.3-0.6c1.4-1.1,1.7-3.2,0.6-4.6
		c-0.2-0.2-0.4-0.4-0.6-0.6c-0.3-0.3-0.4-0.8-0.1-1.1c0.3-0.3,0.7-0.4,1.1-0.1c2.1,1.6,2.5,4.7,0.9,6.8c-0.2,0.3-0.5,0.6-0.9,0.9
		C29.6,26.4,29.5,26.5,29.3,26.5L29.3,26.5z"/>
</g>
<line class="st1" x1="6.3" y1="6.9" x2="39.2" y2="37.5"/>
</svg>
