<?xml version="1.0" encoding="UTF-8"?><svg id="_レイヤー_1" xmlns="http://www.w3.org/2000/svg" viewBox="0 0 45 45"><defs><style>.cls-1{fill:#ebebeb;}.cls-1,.cls-2{stroke-width:0px;}.cls-2{fill:#01cba4;}</style></defs><g id="_グループ_1815"><circle id="_楕円形_10-2" class="cls-1" cx="22.5" cy="22.5" r="22.5"/><g id="_グループ_1733-2"><path id="_パス_766-2" class="cls-2" d="m24.4,11.76l-5.73,5.28h-4.72c-1.09,0-1.98.89-1.98,1.98v6.96c0,1.09.89,1.98,1.98,1.98h4.72l5.73,5.28c1.01.8,1.95.53,1.95-.7V12.46c0-1.23-.94-1.49-1.95-.7Z"/><path id="_パス_767-2" class="cls-2" d="m31.52,28.7c-.43,0-.77-.35-.77-.78,0-.22.1-.44.27-.58,2.67-2.32,2.96-6.36.64-9.03-.2-.23-.41-.44-.64-.64-.32-.29-.34-.78-.05-1.1.28-.3.75-.34,1.06-.07,3.32,2.88,3.67,7.9.8,11.21-.25.28-.51.55-.8.8-.14.12-.32.19-.51.19Z"/><path id="_パス_768-2" class="cls-2" d="m29.32,26.5c-.43,0-.78-.35-.78-.77,0-.24.11-.46.3-.61,1.44-1.12,1.7-3.2.58-4.65-.17-.22-.36-.41-.58-.58-.33-.27-.38-.76-.11-1.09.26-.32.73-.38,1.06-.13,2.12,1.65,2.5,4.7.85,6.82-.25.32-.53.6-.85.85-.14.11-.3.16-.48.16Z"/></g></g></svg>