<?xml version="1.0" encoding="UTF-8"?><svg id="_レイヤー_1" xmlns="http://www.w3.org/2000/svg" viewBox="0 0 45 45"><defs><style>.cls-1,.cls-2{stroke-width:0px;}.cls-2{fill:#01cba4;}</style></defs><path id="_パス_777" class="cls-2" d="m22.5,0c12.43,0,22.5,10.07,22.5,22.5s-10.07,22.5-22.5,22.5S0,34.93,0,22.5,10.07,0,22.5,0Z"/><g id="_グループ_1728"><path id="_パス_764" class="cls-1" d="m31.37,20.71c-.57,0-1.03.46-1.03,1.03v8.68c0,.56-.45,1.01-1.01,1.01h-14.16c-.56,0-1.01-.45-1.01-1.01v-14.16c0-.56.45-1.01,1.01-1.01h8.68c.57,0,1.03-.46,1.03-1.03,0-.57-.46-1.03-1.03-1.03h-8.68c-1.7,0-3.07,1.38-3.08,3.08v14.16c0,1.7,1.38,3.07,3.08,3.07h14.16c1.7,0,3.07-1.38,3.08-3.07v-8.68c0-.57-.46-1.03-1.03-1.03Z"/><path id="_パス_765" class="cls-1" d="m35.3,11.22l-6.74-.22c-.57-.02-1.04.42-1.07.98,0,0,0,.01,0,.02-.02.57.43,1.05,1,1.07l3.37.11-10.02,9.73c-.41.4-.42,1.05-.02,1.46,0,0,0,0,0,0,.19.2.46.31.74.31.27,0,.53-.1.72-.29l10.06-9.76.11,3.4c.02.56.48,1,1.03,1h.03c.57-.02,1.02-.5,1-1.07l-.21-6.74Z"/></g></svg>