<?xml version="1.0" encoding="UTF-8"?><svg id="_レイヤー_1" xmlns="http://www.w3.org/2000/svg" viewBox="0 0 17 17"><defs><style>.cls-1{fill:#01cba4;stroke-width:0px;}</style></defs><g id="_グループ_340"><path id="_パス_740" class="cls-1" d="m16.8,4.02c-.46-1.24-1.66-2.05-2.98-2.01V0h-2.13v2.01h-6.38V0h-2.13v2.01c-1.32-.04-2.52.77-2.98,2.01h16.59Z"/><path id="_パス_741" class="cls-1" d="m0,5.03v8.71c-.05,1.75,1.32,3.21,3.07,3.26.04,0,.08,0,.12,0h10.62c1.75.01,3.18-1.4,3.19-3.15,0-.04,0-.08,0-.12V5.03H0Zm5.31,8.71h-2.13v-2.17h2.13v2.17Zm0-4.35h-2.13v-2.18h2.13v2.18Zm4.25,4.35h-2.12v-2.17h2.12v2.17Zm0-4.35h-2.12v-2.18h2.12v2.18Zm4.25,0h-2.13v-2.18h2.13v2.18Z"/></g></svg>