<?xml version="1.0" encoding="UTF-8"?><svg id="_レイヤー_1" xmlns="http://www.w3.org/2000/svg" viewBox="0 0 17 17"><defs><style>.cls-1{fill:#01cba4;stroke-width:0px;}</style></defs><path class="cls-1" d="m14.51,2.49C12.97.95,10.85,0,8.5,0c-2.34,0-4.47.95-6.01,2.49C.95,4.03,0,6.16,0,8.5c0,2.34.95,4.47,2.49,6.01,1.54,1.54,3.67,2.49,6.01,2.49,2.35,0,4.47-.95,6.01-2.49,1.54-1.54,2.49-3.67,2.49-6.01,0-2.34-.95-4.47-2.49-6.01Zm1.55,5.7v.72h-1.12s0-.72,0-.72h1.12Zm-1.8-2.55l-.36-.62.97-.56.36.62-.97.56Zm0,5.82l.97.56-.36.62-.97-.56.36-.62Zm-5.4,3.53v1.12h-.72v-1.12h.72Zm-.72-12.88V.99h.72v1.12h-.72Zm3.89,11.84l.56.97-.62.36-.56-.97.62-.36Zm-6.44.36l-.56.97-.62-.36.56-.97.62.36Zm-1.18-12.12l.62-.36.56.97-.62.36-.56-.97Zm.9,3.98c.19-.26.53-.34.76-.17l2.42,1.68,3.13-3.34c.19-.21.49-.25.68-.09.19.16.18.47,0,.69l-3.35,3.96s-.01.01-.02.02c-.21.23-.52.3-.76.17,0,0-.01,0-.02,0-.01,0-.03-.01-.04-.02l-2.73-2.11c-.23-.17-.25-.51-.06-.77Zm6.1-3.37l.56-.97.62.36-.56.97-.62-.36ZM2.74,5.64l-.97-.56.36-.62.97.56-.36.62Zm-.68,2.55v.72H.94v-.72h1.12Zm.68,3.27l.36.62-.97.56-.36-.62.97-.56Z"/></svg>